<svg width="25" height="16" viewBox="0 0 25 16" fill="none" xmlns="http://www.w3.org/2000/svg">
<path fill-rule="evenodd" clip-rule="evenodd" d="M2 0C0.895431 0 0 0.895431 0 2V14C0 15.1046 0.89543 16 2 16H23C24.1046 16 25 15.1046 25 14V2C25 0.895431 24.1046 0 23 0H2ZM12.0852 9.71197C11.5242 11.208 10.1492 12.154 8.38923 12.154C6.05723 12.154 4.40723 10.504 4.40723 8.10597C4.40723 5.70797 6.05723 4.06897 8.38923 4.06897C10.1492 4.06897 11.5242 5.01497 12.0852 6.49997L10.5892 7.03897C10.2482 6.10397 9.43423 5.52097 8.38923 5.52097C6.99223 5.52097 5.99123 6.55497 5.99123 8.10597C5.99123 9.65697 6.99223 10.691 8.38923 10.691C9.43423 10.691 10.2482 10.119 10.5892 9.18397L12.0852 9.71197ZM20.4534 9.71197C19.8924 11.208 18.5174 12.154 16.7574 12.154C14.4254 12.154 12.7754 10.504 12.7754 8.10597C12.7754 5.70797 14.4254 4.06897 16.7574 4.06897C18.5174 4.06897 19.8924 5.01497 20.4534 6.49997L18.9574 7.03897C18.6164 6.10397 17.8024 5.52097 16.7574 5.52097C15.3604 5.52097 14.3594 6.55497 14.3594 8.10597C14.3594 9.65697 15.3604 10.691 16.7574 10.691C17.8024 10.691 18.6164 10.119 18.9574 9.18397L20.4534 9.71197Z" fill="white"/>
</svg>
