<svg width="300" height="117" viewBox="0 0 300 117" fill="none" xmlns="http://www.w3.org/2000/svg">
<path d="M15.5 7.5C15.8 7.6 15.9 8 15.7 8.3C15.6 8.4 15.6 8.5 15.5 8.5L4.1 15.5C3.6 15.8 3.3 15.6 3.3 15V1C3.3 0.500004 3.7 0.200004 4.1 0.500004L15.5 7.5Z" fill="white"/>
<path d="M195.2 7.5C195.5 7.6 195.6 8 195.4 8.3C195.3 8.4 195.3 8.5 195.2 8.5L183.8 15.5C183.3 15.8 183 15.6 183 15V1C183 0.500004 183.4 0.200004 183.8 0.500004L195.2 7.5Z" fill="#333C4E"/>
<path d="M22.5 0C23.3284 0 24 0.671573 24 1.5V14.5C24 15.3284 23.3284 16 22.5 16C21.6716 16 21 15.3284 21 14.5V1.5C21 0.671573 21.6716 0 22.5 0ZM30.5 0C31.3284 0 32 0.671573 32 1.5V14.5C32 15.3284 31.3284 16 30.5 16C29.6716 16 29 15.3284 29 14.5V1.5C29 0.671573 29.6716 0 30.5 0Z" fill="white"/>
<path d="M202.5 0C203.328 0 204 0.671573 204 1.5V14.5C204 15.3284 203.328 16 202.5 16C201.672 16 201 15.3284 201 14.5V1.5C201 0.671573 201.672 0 202.5 0ZM210.5 0C211.328 0 212 0.671573 212 1.5V14.5C212 15.3284 211.328 16 210.5 16C209.672 16 209 15.3284 209 14.5V1.5C209 0.671573 209.672 0 210.5 0Z" fill="#333C4E"/>
<path d="M83 0H81V6H83V0Z" fill="white"/>
<path d="M81 0V2L87 2V0L81 0Z" fill="white"/>
<path d="M83 16H81V10H83V16Z" fill="white"/>
<path d="M81 14V16L87 16V14L81 14Z" fill="white"/>
<path d="M95 0H97V6H95V0Z" fill="white"/>
<path d="M97 2V0L91 0V2L97 2Z" fill="white"/>
<path d="M95 16H97V10H95V16Z" fill="white"/>
<path d="M97 14V16H91V14H97Z" fill="white"/>
<path d="M106 0H104V6H106V0Z" fill="white"/>
<path d="M100 4V6H106V4H100Z" fill="white"/>
<path d="M110 0H112V6H110V0Z" fill="white"/>
<path d="M116 6V4H110V6H116Z" fill="white"/>
<path d="M106 16H104V10H106V16Z" fill="white"/>
<path d="M100 10V12L106 12V10L100 10Z" fill="white"/>
<path d="M110 16H112V10H110V16Z" fill="white"/>
<path d="M116 10V12H110V10H116Z" fill="white"/>
<path d="M54 8.00445C54 6.43024 53.0933 5.07838 51.7778 4.42023V6.38577L53.9556 8.56476C53.9822 8.38688 54 8.20011 54 8.00445ZM56.2222 8.00445C56.2222 8.84047 56.0444 9.62312 55.7422 10.3524L57.0844 11.6954C57.6711 10.5926 58 9.33852 58 8.00445C58 4.19789 55.3422 1.0139 51.7778 0.213452V2.03669C54.3467 2.80156 56.2222 5.1851 56.2222 8.00445ZM43.1289 0L42 1.12062L46.1956 5.3274H42V10.6637H45.5556L50 15.1106V9.12507L53.7778 12.9049C53.1822 13.3674 52.5156 13.7321 51.7778 13.9544V15.7865C53.0044 15.5108 54.1156 14.9416 55.0578 14.1768L56.8711 16L58 14.8705L50 6.86604L43.1378 0H43.1289ZM49.9911 0.880489L48.1333 2.73041L49.9911 4.58922V0.889383V0.880489Z" fill="white"/>
<path d="M61 10.7366H64.5556L69 15.2976V0.702395L64.5556 5.2634H61V10.7366ZM70.7778 4.3512V11.6488C72.0933 11.0285 73 9.6146 73 8C73 6.41277 72.0933 5.02623 70.7778 4.3512ZM70.7778 1.87913C73.3467 2.66363 75.2222 5.10832 75.2222 8C75.2222 10.8917 73.3467 13.3364 70.7778 14.1209V16C74.3422 15.1699 77 11.9042 77 8C77 4.09578 74.3422 0.830103 70.7778 0V1.87913Z" fill="white"/>
<path d="M231 8.00445C231 6.43024 230.093 5.07838 228.778 4.42023V6.38577L230.956 8.56476C230.982 8.38688 231 8.20011 231 8.00445ZM233.222 8.00445C233.222 8.84047 233.044 9.62312 232.742 10.3524L234.084 11.6954C234.671 10.5926 235 9.33852 235 8.00445C235 4.19789 232.342 1.0139 228.778 0.213452V2.03669C231.347 2.80156 233.222 5.1851 233.222 8.00445ZM220.129 0L219 1.12062L223.196 5.3274H219V10.6637H222.556L227 15.1106V9.12507L230.778 12.9049C230.182 13.3674 229.516 13.7321 228.778 13.9544V15.7865C230.004 15.5108 231.116 14.9416 232.058 14.1768L233.871 16L235 14.8705L227 6.86604L220.138 0H220.129ZM226.991 0.880489L225.133 2.73041L226.991 4.58922V0.889383V0.880489Z" fill="#333C4E"/>
<path d="M242 10.7366H245.556L250 15.2976V0.702395L245.556 5.2634H242V10.7366ZM251.778 4.3512V11.6488C253.093 11.0285 254 9.6146 254 8C254 6.41277 253.093 5.02623 251.778 4.3512ZM251.778 1.87913C254.347 2.66363 256.222 5.10832 256.222 8C256.222 10.8917 254.347 13.3364 251.778 14.1209V16C255.342 15.1699 258 11.9042 258 8C258 4.09578 255.342 0.830103 251.778 0V1.87913Z" fill="#333C4E"/>
<path d="M120 10.7366H123.556L128 15.2976V0.702393L123.556 5.2634H120V10.7366ZM129.778 4.3512V11.6488C131.093 11.0285 132 9.61459 132 8C132 6.41277 131.093 5.02622 129.778 4.3512Z" fill="white"/>
<path d="M264 10.7366H267.556L272 15.2976V0.702393L267.556 5.2634H264V10.7366ZM273.778 4.3512V11.6488C275.093 11.0285 276 9.61459 276 8C276 6.41277 275.093 5.02622 273.778 4.3512Z" fill="#333C4E"/>
<path opacity="0.75" d="M1.5 78C1.5 57.3 18.3 40.5 39 40.5C59.7 40.5 76.5 57.3 76.5 78C76.5 98.7 59.7 115.5 39 115.5C18.3 115.5 1.5 98.7 1.5 78Z" fill="black" stroke="white" stroke-width="3"/>
<path opacity="0.8" d="M50.5868 76.4219C50.9541 76.5393 51.0765 76.8916 50.9541 77.2439C50.8929 77.42 50.7705 77.5375 50.5868 77.5962L32.0406 87.8712C31.4285 88.2235 31 87.9299 31 87.2841V66.734C31 66.0882 31.4897 65.8533 32.0406 66.1469L50.5868 76.4219Z" fill="white"/>
<path d="M81.5 78C81.5 57.3 98.3 40.5 119 40.5C139.7 40.5 156.5 57.3 156.5 78C156.5 98.7 139.7 115.5 119 115.5C98.3 115.5 81.5 98.7 81.5 78Z" fill="black" fill-opacity="0.7" stroke="white" stroke-width="3"/>
<path d="M130.587 76.4219C130.954 76.5393 131.077 76.8916 130.954 77.2439C130.893 77.42 130.77 77.5375 130.587 77.5962L112.041 87.8712C111.428 88.2235 111 87.9299 111 87.2841V66.734C111 66.0882 111.49 65.8533 112.041 66.1469L130.587 76.4219Z" fill="white"/>
<path d="M161.119 8.4C161.119 8.8 161.519 9.1 162.019 9.1C162.119 9.1 162.219 9.1 162.219 9L167.119 7.2C167.619 7 167.719 6.6 167.219 6.4L161.019 2.8C160.519 2.5 160.219 2.7 160.319 3.3L161.119 8.4Z" fill="white"/>
<path d="M169.719 14.9C170.719 14.9 171.719 14.7 172.619 14.2C174.619 13.2 175.819 11.2 175.819 8.99998C175.719 5.59998 172.919 2.99998 169.519 2.99998C167.019 3.09998 164.719 4.69998 163.919 7.09998L163.819 6.99998L161.719 8.09998C162.319 3.69998 166.419 0.599977 170.819 1.19998C174.719 1.79998 177.719 5.09998 177.819 9.09998C177.819 12 176.119 14.7 173.519 16.1C172.319 16.7 171.019 17 169.719 17.1C167.119 17.1 164.719 15.9 163.119 13.8L164.919 12.9C166.119 14.1 167.919 14.9 169.719 14.9Z" fill="white"/>
<path d="M282.819 8.4C282.819 8.8 283.219 9.1 283.719 9.1C283.819 9.1 283.919 9.1 283.919 9L288.819 7.2C289.319 7 289.419 6.6 288.919 6.4L282.719 2.8C282.219 2.5 281.919 2.7 282.019 3.3L282.819 8.4Z" fill="#333C4E"/>
<path d="M291.419 14.9C292.419 14.9 293.419 14.7 294.319 14.2C296.319 13.2 297.519 11.2 297.519 8.99998C297.419 5.59998 294.619 2.99998 291.219 2.99998C288.719 3.09998 286.419 4.69998 285.619 7.09998L285.519 6.99998L283.419 8.09998C284.019 3.69998 288.119 0.599977 292.519 1.19998C296.419 1.79998 299.419 5.09998 299.519 9.09998C299.519 12 297.819 14.7 295.219 16.1C294.019 16.7 292.719 17 291.419 17.1C288.819 17.1 286.419 15.9 284.819 13.8L286.619 12.9C287.819 14.1 289.619 14.9 291.419 14.9Z" fill="#333C4E"/>
</svg>
