<svg width="23" height="16" viewBox="0 0 23 16" fill="none" xmlns="http://www.w3.org/2000/svg">
<path fill-rule="evenodd" clip-rule="evenodd" d="M21 1.5H2C1.72386 1.5 1.5 1.72386 1.5 2V14C1.5 14.2761 1.72386 14.5 2 14.5H21C21.2761 14.5 21.5 14.2761 21.5 14V2C21.5 1.72386 21.2761 1.5 21 1.5ZM2 0C0.895431 0 0 0.895431 0 2V14C0 15.1046 0.89543 16 2 16H21C22.1046 16 23 15.1046 23 14V2C23 0.895431 22.1046 0 21 0H2ZM8.00059 7.99868L5.00059 4.99868V10.9987L8.00059 7.99868ZM17.9994 4.99868L14.9994 7.99868L17.9994 10.9987V4.99868Z" fill="white"/>
</svg>
