<svg width="23" height="16" viewBox="0 0 23 16" fill="none" xmlns="http://www.w3.org/2000/svg">
<path fill-rule="evenodd" clip-rule="evenodd" d="M21 1.5H2C1.72386 1.5 1.5 1.72386 1.5 2V14C1.5 14.2761 1.72386 14.5 2 14.5H21C21.2761 14.5 21.5 14.2761 21.5 14V2C21.5 1.72386 21.2761 1.5 21 1.5ZM2 0C0.895431 0 0 0.895431 0 2V14C0 15.1046 0.89543 16 2 16H21C22.1046 16 23 15.1046 23 14V2C23 0.895431 22.1046 0 21 0H2ZM4 6C4 5.44772 4.44772 5 5 5H8C8.55229 5 9 5.44772 9 6C9 6.55228 8.55229 7 8 7H5C4.44772 7 4 6.55228 4 6ZM15 9C14.4477 9 14 9.44771 14 10C14 10.5523 14.4477 11 15 11H17C17.5523 11 18 10.5523 18 10C18 9.44771 17.5523 9 17 9H15ZM4 10C4 9.44771 4.44772 9 5 9H11C11.5523 9 12 9.44771 12 10C12 10.5523 11.5523 11 11 11H5C4.44772 11 4 10.5523 4 10ZM12 5C11.4477 5 11 5.44772 11 6C11 6.55228 11.4477 7 12 7H17C17.5523 7 18 6.55228 18 6C18 5.44772 17.5523 5 17 5H12Z" fill="white"/>
</svg>
