<svg width="48" height="48" viewBox="0 0 48 48" fill="none" xmlns="http://www.w3.org/2000/svg">
<rect width="48" height="48" rx="5" fill="white"/>
<path fill-rule="evenodd" clip-rule="evenodd" d="M43.3729 13.8216L42.509 12.6783C42.3959 12.5284 42.239 12.4183 42.0605 12.3636C41.6441 12.2369 40.5318 12.071 39.9682 12.0429C39.869 12.0367 39.7728 12.0068 39.6873 11.9557C39.6019 11.9046 39.5297 11.8337 39.4767 11.7489C38.9385 10.9113 37.0435 8.91678 36.6021 9.00269C36.1036 9.09973 36.2806 9.35011 36.3724 9.83344C36.6358 11.2229 37.8421 13.0577 37.8421 13.0577C37.8421 13.0577 37.062 15.3937 35.7535 15.6484C33.4771 16.0916 31.3348 11.6853 25.1031 11.6423C9.32235 11.6423 11.7053 33.7526 2.76765 33.7526C2.08491 33.7526 2.00096 34.1293 2.00096 34.2087C2.00096 34.3695 1.92078 34.7443 3.22415 34.7443C13.1861 34.7443 14.6161 21.9273 17.3756 21.9273C18.386 21.9273 18.2954 24.9839 18.2954 25.9848C18.2954 31.3319 16.1185 32.5224 16.1185 34.0604C16.1185 34.6449 16.4603 35.0531 17.2632 35.4334C19.3215 36.4075 25.1227 38.3152 26.6471 38.3152C28.1716 38.3152 24.1614 35.2007 23.0548 35.2007C21.9482 35.2007 19.5047 34.8544 19.5047 33.265C19.5047 31.4893 26.965 28.2183 26.965 24.3809C28.8643 24.3809 30.4984 24.1572 31.9173 23.7746C32.1997 24.4684 32.6857 25.7023 32.7791 26.1959C32.8548 26.5957 32.623 27.2522 31.9996 27.3735C31.3762 27.4947 30.1993 28.3475 30.2707 28.7263C30.342 29.1051 31.2731 29.4274 31.8964 29.3061C32.5197 29.1849 34.0338 28.7007 34.2352 27.2644C34.3321 26.574 34.7871 23.8311 35.3172 22.3646C37.8765 20.8632 39.4403 18.7707 40.6813 16.9661C40.7304 16.8942 40.7936 16.8332 40.867 16.7869C40.9404 16.7407 41.0223 16.7101 41.1078 16.697C41.5905 16.5605 42.0893 16.4908 42.5905 16.49C43.4156 16.49 44.1579 16.8163 44.6388 16.8163C45.1893 16.8163 45.5 16.1384 45.5 15.8247C45.5005 14.9132 43.3729 13.8216 43.3729 13.8216Z" fill="#168EEA"/>
</svg>
