<svg id="audio" xmlns="http://www.w3.org/2000/svg" width="84" height="84" viewBox="0 0 28 28">
  <defs>
    <style>
      .cls-1 {
        fill: #fff;
        fill-rule: evenodd;
      }
    </style>
  </defs>
  <path id="icon" class="cls-1" d="M485.5,187a0.5,0.5,0,0,1-.5-0.5v-2a0.5,0.5,0,0,1,1,0v2A0.5,0.5,0,0,1,485.5,187Zm-7.5,7.976V198h3a1,1,0,0,1,0,2h-7a1,1,0,0,1,0-2h3v-3.024A8.489,8.489,0,0,1,469.025,187h1a7.491,7.491,0,0,0,14.95,0h1A8.489,8.489,0,0,1,478,194.976Zm-9-8.476v-2a0.5,0.5,0,0,1,1,0v2A0.5,0.5,0,0,1,469,186.5Zm8.5,5.5a5.5,5.5,0,0,1-5.5-5.5v-9a5.5,5.5,0,0,1,11,0v9A5.5,5.5,0,0,1,477.5,192Zm4.5-14.5a4.5,4.5,0,0,0-9,0v8c0,2.485,2.015,5.5,4.5,5.5a4.5,4.5,0,0,0,4.5-4.5v-9Z" transform="translate(-463.5 -172)"/>
</svg>
