<svg id="file" xmlns="http://www.w3.org/2000/svg" width="84" height="84" viewBox="0 0 28 28">
  <defs>
    <style>
      .cls-1 {
        fill: #fff;
        fill-rule: evenodd;
      }
    </style>
  </defs>
  <path id="file-2" data-name="file" class="cls-1" d="M218,173h0Zm7.01,8.278-0.366.366L225,182v16a3,3,0,0,1-3,3H204a3,3,0,0,1-3-3V176a3,3,0,0,1,3-3h12.712l0.01-.01,0.011,0.01h0ZM217,174.733V179a2,2,0,0,0,2,2h4.267ZM202,176v22a2,2,0,0,0,2,2h18a2,2,0,0,0,2-2V182h-6a2,2,0,0,1-2-2v-6H204A2,2,0,0,0,202,176Zm14-3,0.356,0.356,0.356-.356H216Z" transform="translate(-199 -173)"/>
</svg>
