<svg id="notes" xmlns="http://www.w3.org/2000/svg" width="84" height="84" viewBox="0 0 28 28">
  <defs>
    <style>
      .cls-1 {
        fill: #fff;
        fill-rule: evenodd;
      }
    </style>
  </defs>
  <path id="file" class="cls-1" d="M644,173h18a3,3,0,0,1,3,3v22a3,3,0,0,1-3,3H644a3,3,0,0,1-3-3V176A3,3,0,0,1,644,173Zm0,1h18a2,2,0,0,1,2,2v22a2,2,0,0,1-2,2H644a2,2,0,0,1-2-2V176A2,2,0,0,1,644,174Zm1.5,5h15a0.5,0.5,0,0,1,.5.5h0a0.5,0.5,0,0,1-.5.5h-15a0.5,0.5,0,0,1-.5-0.5h0A0.5,0.5,0,0,1,645.5,179Zm0,5h15a0.5,0.5,0,0,1,.5.5h0a0.5,0.5,0,0,1-.5.5h-15a0.5,0.5,0,0,1-.5-0.5h0A0.5,0.5,0,0,1,645.5,184Zm0,5h15a0.5,0.5,0,0,1,0,1h-15A0.5,0.5,0,0,1,645.5,189Zm0,5h15a0.5,0.5,0,0,1,0,1h-15A0.5,0.5,0,0,1,645.5,194Z" transform="translate(-639 -173)"/>
</svg>
