<svg id="screenrecord" xmlns="http://www.w3.org/2000/svg" width="84" height="84" viewBox="0 0 28 28">
  <defs>
    <style>
      .cls-1 {
        fill: #fff;
        fill-rule: evenodd;
      }
    </style>
  </defs>
  <path id="file" class="cls-1" d="M578.219,189.823l-3.438-2.723a2.327,2.327,0,0,1-.781-1.608V190a3,3,0,0,1-3,3H554a3,3,0,0,1-3-3V178a3,3,0,0,1,3-3h17a3,3,0,0,1,3,3v4.512a2.327,2.327,0,0,1,.781-1.608l3.438-2.723c0.43-.34.781-0.173,0.781,0.372v10.9C579,190,578.649,190.163,578.219,189.823ZM573,178a2,2,0,0,0-2-2H554a2,2,0,0,0-2,2v12a2,2,0,0,0,2,2h17a2,2,0,0,0,2-2V178Zm5,1.425-2.6,2.106a1.414,1.414,0,0,0-.4.844v3.052a1.418,1.418,0,0,0,.4.844l2.6,2.107v-8.953ZM566,174a1,1,0,0,0-1-1h-5a1,1,0,0,0-1,1v1h-1v-1a2,2,0,0,1,2-2h5a2,2,0,0,1,2,2v1h-1v-1Z" transform="translate(-551 -168.5)"/>
</svg>
