<svg id="screenshot" xmlns="http://www.w3.org/2000/svg" width="84" height="84" viewBox="0 0 28 28">
  <defs>
    <style>
      .cls-1 {
        fill: #fff;
        fill-rule: evenodd;
      }
    </style>
  </defs>
  <path id="file" class="cls-1" d="M312,197H290a3,3,0,0,1-3-3V180a3,3,0,0,1,3-3h22a3,3,0,0,1,3,3v14A3,3,0,0,1,312,197Zm2-17a2,2,0,0,0-2-2H290a2,2,0,0,0-2,2v14a2,2,0,0,0,2,2h22a2,2,0,0,0,2-2V180Zm-3.5,3a1.5,1.5,0,1,1,1.5-1.5A1.5,1.5,0,0,1,310.5,183Zm-9.5,9a5,5,0,1,1,5-5A5,5,0,0,1,301,192Zm0-9a4,4,0,1,0,4,4A4,4,0,0,0,301,183Zm2.968-9H298c-0.32.184-.916,2-1.492,3H295s1.81-4,3-4h6c1.19,0,3,4,3,4h-1.54C304.885,176,304.289,174.184,303.968,174Z" transform="translate(-287 -171)"/>
</svg>
