<svg id="webcam" xmlns="http://www.w3.org/2000/svg" width="84" height="83.999" viewBox="0 0 29.001 29">
  <defs>
    <style>
      .cls-1 {
        fill: #fff;
        fill-rule: evenodd;
      }
    </style>
  </defs>
  <path class="cls-1" d="M744.543,193.58L750,200H733l5.457-6.42A11.5,11.5,0,1,1,744.543,193.58ZM734.989,199h13.018l-4.78-5.143a10.482,10.482,0,0,1-3.457,0Zm6.511-27A10.5,10.5,0,1,0,752,182.5,10.5,10.5,0,0,0,741.5,172Zm0,14a3.5,3.5,0,1,1,3.5-3.5A3.5,3.5,0,0,1,741.5,186Zm0-6a2.5,2.5,0,1,0,2.5,2.5A2.5,2.5,0,0,0,741.5,180Zm0-4a0.5,0.5,0,1,1,.5-0.5A0.5,0.5,0,0,1,741.5,176Z" transform="translate(-727 -171)"/>
</svg>
